<mxfile host="app.diagrams.net" modified="2023-04-11T16:11:42.056Z" agent="Mozilla/5.0 (Windows NT 10.0; Win64; x64) AppleWebKit/537.36 (KHTML, like Gecko) Chrome/111.0.0.0 Safari/537.36" etag="cnne8jjcgRsszikse4WB" version="21.1.5" type="device">
  <diagram id="RkJwqlZ_fVXJaQxUuwy1" name="Страница 1">
    <mxGraphModel dx="1434" dy="788" grid="1" gridSize="10" guides="1" tooltips="1" connect="1" arrows="1" fold="1" page="1" pageScale="1" pageWidth="827" pageHeight="1169" math="0" shadow="0">
      <root>
        <mxCell id="0" />
        <mxCell id="1" parent="0" />
        <mxCell id="TW7Y_rrsZ_jFDQ2ziWj9-1" value="&lt;div style=&quot;text-align: justify;&quot;&gt;&lt;span style=&quot;font-size: 14px; background-color: initial;&quot;&gt;Нарисовать блок-схему алгоритма,&amp;nbsp;которая из имеющегося массива строк формирует новый массив из строк, длина которых меньше, либо равна 3 символам. Первоначальный массив можно ввести с клавиатуры, либо задать на старте выполнения алгоритма.&amp;nbsp;&lt;/span&gt;&lt;/div&gt;" style="text;html=1;strokeColor=none;fillColor=none;align=left;verticalAlign=middle;whiteSpace=wrap;rounded=0;" parent="1" vertex="1">
          <mxGeometry x="50" y="10" width="720" height="60" as="geometry" />
        </mxCell>
        <mxCell id="TW7Y_rrsZ_jFDQ2ziWj9-4" value="" style="edgeStyle=orthogonalEdgeStyle;rounded=0;orthogonalLoop=1;jettySize=auto;html=1;" parent="1" edge="1">
          <mxGeometry relative="1" as="geometry">
            <mxPoint x="213.25" y="140" as="sourcePoint" />
            <mxPoint x="213.29999999999995" y="180" as="targetPoint" />
          </mxGeometry>
        </mxCell>
        <mxCell id="dgL0YuDlZIvRxpqS1r9H-7" value="" style="edgeStyle=orthogonalEdgeStyle;rounded=0;orthogonalLoop=1;jettySize=auto;html=1;entryX=0;entryY=0.5;entryDx=0;entryDy=0;" parent="1" edge="1">
          <mxGeometry relative="1" as="geometry">
            <mxPoint x="40.690000000000055" y="420" as="targetPoint" />
            <Array as="points">
              <mxPoint x="10" y="560" />
              <mxPoint x="10" y="420" />
            </Array>
          </mxGeometry>
        </mxCell>
        <mxCell id="dgL0YuDlZIvRxpqS1r9H-12" value="&lt;font style=&quot;font-size: 14px;&quot;&gt;yes&lt;br&gt;&lt;/font&gt;" style="edgeLabel;html=1;align=center;verticalAlign=middle;resizable=0;points=[];" parent="dgL0YuDlZIvRxpqS1r9H-7" vertex="1" connectable="0">
          <mxGeometry x="0.0223" relative="1" as="geometry">
            <mxPoint x="20" y="6" as="offset" />
          </mxGeometry>
        </mxCell>
        <mxCell id="0LKnxJZpvo0fj-x4wCi4-4" value="" style="edgeStyle=orthogonalEdgeStyle;rounded=0;orthogonalLoop=1;jettySize=auto;html=1;" parent="1" source="0LKnxJZpvo0fj-x4wCi4-2" target="0LKnxJZpvo0fj-x4wCi4-3" edge="1">
          <mxGeometry relative="1" as="geometry" />
        </mxCell>
        <mxCell id="0LKnxJZpvo0fj-x4wCi4-7" value="" style="edgeStyle=orthogonalEdgeStyle;rounded=0;orthogonalLoop=1;jettySize=auto;html=1;" parent="1" source="0LKnxJZpvo0fj-x4wCi4-3" target="0LKnxJZpvo0fj-x4wCi4-6" edge="1">
          <mxGeometry relative="1" as="geometry" />
        </mxCell>
        <mxCell id="0LKnxJZpvo0fj-x4wCi4-9" value="" style="edgeStyle=orthogonalEdgeStyle;rounded=0;orthogonalLoop=1;jettySize=auto;html=1;" parent="1" source="0LKnxJZpvo0fj-x4wCi4-6" target="0LKnxJZpvo0fj-x4wCi4-8" edge="1">
          <mxGeometry relative="1" as="geometry">
            <Array as="points">
              <mxPoint x="213" y="490" />
              <mxPoint x="213" y="490" />
            </Array>
          </mxGeometry>
        </mxCell>
        <mxCell id="0LKnxJZpvo0fj-x4wCi4-10" value="yes" style="edgeLabel;html=1;align=center;verticalAlign=middle;resizable=0;points=[];fontSize=14;" parent="0LKnxJZpvo0fj-x4wCi4-9" vertex="1" connectable="0">
          <mxGeometry x="-0.3273" y="-3" relative="1" as="geometry">
            <mxPoint y="5" as="offset" />
          </mxGeometry>
        </mxCell>
        <mxCell id="0LKnxJZpvo0fj-x4wCi4-16" value="" style="edgeStyle=orthogonalEdgeStyle;rounded=0;orthogonalLoop=1;jettySize=auto;html=1;entryX=0;entryY=0.5;entryDx=0;entryDy=0;" parent="1" source="0LKnxJZpvo0fj-x4wCi4-6" target="0LKnxJZpvo0fj-x4wCi4-15" edge="1">
          <mxGeometry relative="1" as="geometry">
            <mxPoint x="430" y="448" as="targetPoint" />
          </mxGeometry>
        </mxCell>
        <mxCell id="0LKnxJZpvo0fj-x4wCi4-17" value="&lt;font style=&quot;font-size: 14px;&quot;&gt;no&lt;/font&gt;" style="edgeLabel;html=1;align=center;verticalAlign=middle;resizable=0;points=[];" parent="0LKnxJZpvo0fj-x4wCi4-16" vertex="1" connectable="0">
          <mxGeometry x="0.2615" y="-1" relative="1" as="geometry">
            <mxPoint x="-171" y="-2" as="offset" />
          </mxGeometry>
        </mxCell>
        <mxCell id="0LKnxJZpvo0fj-x4wCi4-14" style="edgeStyle=orthogonalEdgeStyle;rounded=0;orthogonalLoop=1;jettySize=auto;html=1;exitX=0;exitY=0.5;exitDx=0;exitDy=0;entryX=0;entryY=0.5;entryDx=0;entryDy=0;" parent="1" source="0LKnxJZpvo0fj-x4wCi4-8" target="0LKnxJZpvo0fj-x4wCi4-6" edge="1">
          <mxGeometry relative="1" as="geometry">
            <Array as="points">
              <mxPoint x="20" y="563" />
              <mxPoint x="20" y="448" />
            </Array>
          </mxGeometry>
        </mxCell>
        <mxCell id="0LKnxJZpvo0fj-x4wCi4-19" value="" style="edgeStyle=orthogonalEdgeStyle;rounded=0;orthogonalLoop=1;jettySize=auto;html=1;" parent="1" source="0LKnxJZpvo0fj-x4wCi4-15" target="0LKnxJZpvo0fj-x4wCi4-18" edge="1">
          <mxGeometry relative="1" as="geometry">
            <Array as="points">
              <mxPoint x="835" y="520" />
              <mxPoint x="835" y="520" />
            </Array>
          </mxGeometry>
        </mxCell>
        <mxCell id="0LKnxJZpvo0fj-x4wCi4-20" value="&lt;font style=&quot;font-size: 14px;&quot;&gt;yes&lt;/font&gt;" style="edgeLabel;html=1;align=center;verticalAlign=middle;resizable=0;points=[];" parent="0LKnxJZpvo0fj-x4wCi4-19" vertex="1" connectable="0">
          <mxGeometry x="0.2081" y="-1" relative="1" as="geometry">
            <mxPoint as="offset" />
          </mxGeometry>
        </mxCell>
        <mxCell id="0LKnxJZpvo0fj-x4wCi4-43" style="edgeStyle=orthogonalEdgeStyle;rounded=0;orthogonalLoop=1;jettySize=auto;html=1;exitX=1;exitY=0.5;exitDx=0;exitDy=0;entryX=0.5;entryY=0;entryDx=0;entryDy=0;entryPerimeter=0;" parent="1" source="0LKnxJZpvo0fj-x4wCi4-15" edge="1" target="0LKnxJZpvo0fj-x4wCi4-45">
          <mxGeometry relative="1" as="geometry">
            <mxPoint x="1522" y="1080" as="targetPoint" />
            <Array as="points">
              <mxPoint x="1345" y="448" />
            </Array>
          </mxGeometry>
        </mxCell>
        <mxCell id="0LKnxJZpvo0fj-x4wCi4-44" value="&lt;font style=&quot;font-size: 14px;&quot;&gt;no&lt;/font&gt;" style="edgeLabel;html=1;align=center;verticalAlign=middle;resizable=0;points=[];" parent="0LKnxJZpvo0fj-x4wCi4-43" vertex="1" connectable="0">
          <mxGeometry x="-0.9329" y="-1" relative="1" as="geometry">
            <mxPoint x="31" y="-3" as="offset" />
          </mxGeometry>
        </mxCell>
        <mxCell id="0LKnxJZpvo0fj-x4wCi4-25" style="edgeStyle=orthogonalEdgeStyle;rounded=0;orthogonalLoop=1;jettySize=auto;html=1;entryX=0.5;entryY=0;entryDx=0;entryDy=0;" parent="1" source="0LKnxJZpvo0fj-x4wCi4-18" target="0LKnxJZpvo0fj-x4wCi4-21" edge="1">
          <mxGeometry relative="1" as="geometry">
            <Array as="points">
              <mxPoint x="835" y="670" />
            </Array>
          </mxGeometry>
        </mxCell>
        <mxCell id="0LKnxJZpvo0fj-x4wCi4-26" value="&lt;font style=&quot;font-size: 14px;&quot;&gt;yes&lt;/font&gt;" style="edgeLabel;html=1;align=center;verticalAlign=middle;resizable=0;points=[];" parent="0LKnxJZpvo0fj-x4wCi4-25" vertex="1" connectable="0">
          <mxGeometry x="-0.103" relative="1" as="geometry">
            <mxPoint x="17" y="-17" as="offset" />
          </mxGeometry>
        </mxCell>
        <mxCell id="0LKnxJZpvo0fj-x4wCi4-31" value="" style="edgeStyle=orthogonalEdgeStyle;rounded=0;orthogonalLoop=1;jettySize=auto;html=1;" parent="1" source="0LKnxJZpvo0fj-x4wCi4-21" target="0LKnxJZpvo0fj-x4wCi4-30" edge="1">
          <mxGeometry relative="1" as="geometry">
            <Array as="points">
              <mxPoint x="547" y="755" />
            </Array>
          </mxGeometry>
        </mxCell>
        <mxCell id="0LKnxJZpvo0fj-x4wCi4-33" value="&lt;font style=&quot;font-size: 14px;&quot;&gt;yes&lt;/font&gt;" style="edgeLabel;html=1;align=center;verticalAlign=middle;resizable=0;points=[];" parent="0LKnxJZpvo0fj-x4wCi4-31" vertex="1" connectable="0">
          <mxGeometry x="-0.2266" y="1" relative="1" as="geometry">
            <mxPoint x="16" y="-6" as="offset" />
          </mxGeometry>
        </mxCell>
        <mxCell id="0LKnxJZpvo0fj-x4wCi4-35" value="" style="edgeStyle=orthogonalEdgeStyle;rounded=0;orthogonalLoop=1;jettySize=auto;html=1;" parent="1" source="0LKnxJZpvo0fj-x4wCi4-21" target="0LKnxJZpvo0fj-x4wCi4-34" edge="1">
          <mxGeometry relative="1" as="geometry">
            <Array as="points">
              <mxPoint x="1087" y="755" />
            </Array>
          </mxGeometry>
        </mxCell>
        <mxCell id="0LKnxJZpvo0fj-x4wCi4-36" value="&lt;font style=&quot;font-size: 14px;&quot;&gt;no&lt;/font&gt;" style="edgeLabel;html=1;align=center;verticalAlign=middle;resizable=0;points=[];" parent="0LKnxJZpvo0fj-x4wCi4-35" vertex="1" connectable="0">
          <mxGeometry x="-0.7885" y="2" relative="1" as="geometry">
            <mxPoint x="65" y="2" as="offset" />
          </mxGeometry>
        </mxCell>
        <mxCell id="Y_my2KG7RdP4qPt7UipO-1" value="" style="edgeStyle=orthogonalEdgeStyle;rounded=0;orthogonalLoop=1;jettySize=auto;html=1;" edge="1" parent="1" source="0LKnxJZpvo0fj-x4wCi4-30" target="0LKnxJZpvo0fj-x4wCi4-34">
          <mxGeometry relative="1" as="geometry" />
        </mxCell>
        <mxCell id="0LKnxJZpvo0fj-x4wCi4-48" value="" style="edgeStyle=orthogonalEdgeStyle;rounded=0;orthogonalLoop=1;jettySize=auto;html=1;exitX=0.506;exitY=0.862;exitDx=0;exitDy=0;exitPerimeter=0;entryX=1;entryY=0;entryDx=0;entryDy=0;" parent="1" source="0LKnxJZpvo0fj-x4wCi4-45" edge="1" target="mNTBSG7Fdfv_2k1WUgpb-14">
          <mxGeometry relative="1" as="geometry">
            <mxPoint x="1527" y="1290" as="targetPoint" />
            <Array as="points">
              <mxPoint x="1340" y="1212" />
            </Array>
          </mxGeometry>
        </mxCell>
        <mxCell id="Y_my2KG7RdP4qPt7UipO-2" value="" style="group" vertex="1" connectable="0" parent="1">
          <mxGeometry x="618.73" y="1060" width="433.27" height="130" as="geometry" />
        </mxCell>
        <mxCell id="0LKnxJZpvo0fj-x4wCi4-34" value="&lt;div style=&quot;background-color: rgb(255, 255, 255); font-size: 14px; line-height: 19px;&quot;&gt;&lt;div style=&quot;&quot;&gt;&amp;nbsp;arrayElementsLengthLessOrEqualToThree[&lt;span style=&quot;color: rgb(0, 16, 128);&quot;&gt;j&lt;/span&gt;] =&amp;nbsp;arrayGiven[&lt;span style=&quot;color: rgb(0, 16, 128);&quot;&gt;i&lt;/span&gt;]&lt;/div&gt;&lt;div style=&quot;&quot;&gt;&amp;nbsp; &amp;nbsp; &amp;nbsp; &amp;nbsp; &amp;nbsp; &amp;nbsp; &lt;span style=&quot;color: rgb(0, 16, 128);&quot;&gt;j&lt;/span&gt;++&lt;/div&gt;&lt;/div&gt;" style="whiteSpace=wrap;html=1;strokeWidth=2;" parent="Y_my2KG7RdP4qPt7UipO-2" vertex="1">
          <mxGeometry width="433.27" height="130" as="geometry" />
        </mxCell>
        <mxCell id="mNTBSG7Fdfv_2k1WUgpb-12" value="&lt;font style=&quot;font-size: 14px;&quot;&gt;&lt;b&gt;10&lt;/b&gt;&lt;/font&gt;" style="text;html=1;strokeColor=none;fillColor=none;align=center;verticalAlign=middle;whiteSpace=wrap;rounded=0;" parent="Y_my2KG7RdP4qPt7UipO-2" vertex="1">
          <mxGeometry width="60" height="30" as="geometry" />
        </mxCell>
        <mxCell id="Y_my2KG7RdP4qPt7UipO-3" value="" style="group" vertex="1" connectable="0" parent="1">
          <mxGeometry x="490.37" y="840" width="561.63" height="130" as="geometry" />
        </mxCell>
        <mxCell id="0LKnxJZpvo0fj-x4wCi4-30" value="&lt;div style=&quot;background-color: rgb(255, 255, 255); font-size: 14px; line-height: 19px;&quot;&gt;&lt;div style=&quot;&quot;&gt;&lt;span style=&quot;color: rgb(0, 16, 128);&quot;&gt;resizeArray&lt;/span&gt; =&amp;nbsp;arrayElementsLengthLessOrEqualToThree.&lt;span style=&quot;color: rgb(0, 16, 128);&quot;&gt;Length&lt;/span&gt; + &lt;span style=&quot;color: rgb(9, 134, 88);&quot;&gt;1&lt;/span&gt;&lt;/div&gt;&lt;div style=&quot;&quot;&gt;&lt;span style=&quot;color: rgb(38, 127, 153);&quot;&gt;Array&lt;/span&gt;.&lt;span style=&quot;color: rgb(121, 94, 38);&quot;&gt;Resize&lt;/span&gt;(&lt;span style=&quot;color: rgb(0, 0, 255);&quot;&gt;ref&lt;/span&gt;&amp;nbsp;arrayElementsLengthLessOrEqualToThree, resizeArray)&lt;/div&gt;&lt;/div&gt;" style="whiteSpace=wrap;html=1;strokeWidth=2;" parent="Y_my2KG7RdP4qPt7UipO-3" vertex="1">
          <mxGeometry width="561.63" height="130" as="geometry" />
        </mxCell>
        <mxCell id="mNTBSG7Fdfv_2k1WUgpb-5" value="&lt;font style=&quot;font-size: 14px;&quot;&gt;&lt;b&gt;9&lt;/b&gt;&lt;/font&gt;" style="text;html=1;strokeColor=none;fillColor=none;align=center;verticalAlign=middle;whiteSpace=wrap;rounded=0;" parent="Y_my2KG7RdP4qPt7UipO-3" vertex="1">
          <mxGeometry width="60" height="30" as="geometry" />
        </mxCell>
        <mxCell id="Y_my2KG7RdP4qPt7UipO-4" value="" style="group" vertex="1" connectable="0" parent="1">
          <mxGeometry x="729.55" y="700" width="211.63" height="110" as="geometry" />
        </mxCell>
        <mxCell id="0LKnxJZpvo0fj-x4wCi4-21" value="&lt;font style=&quot;font-size: 14px;&quot;&gt;j != 0&lt;/font&gt;" style="rhombus;whiteSpace=wrap;html=1;strokeWidth=2;" parent="Y_my2KG7RdP4qPt7UipO-4" vertex="1">
          <mxGeometry width="211.63" height="110" as="geometry" />
        </mxCell>
        <mxCell id="mNTBSG7Fdfv_2k1WUgpb-6" value="&lt;font style=&quot;font-size: 14px;&quot;&gt;&lt;b&gt;8&lt;/b&gt;&lt;/font&gt;" style="text;html=1;strokeColor=none;fillColor=none;align=center;verticalAlign=middle;whiteSpace=wrap;rounded=0;" parent="Y_my2KG7RdP4qPt7UipO-4" vertex="1">
          <mxGeometry x="40.450000000000045" y="10" width="60" height="30" as="geometry" />
        </mxCell>
        <mxCell id="Y_my2KG7RdP4qPt7UipO-5" value="" style="group" vertex="1" connectable="0" parent="1">
          <mxGeometry x="729.55" y="530" width="211.63" height="110" as="geometry" />
        </mxCell>
        <mxCell id="0LKnxJZpvo0fj-x4wCi4-18" value="&lt;font style=&quot;font-size: 14px;&quot;&gt;arrayGiven[i].Length&lt;span style=&quot;background-color: initial;&quot;&gt;&amp;nbsp;&amp;lt;= 3&lt;/span&gt;&lt;/font&gt;" style="rhombus;whiteSpace=wrap;html=1;strokeWidth=2;" parent="Y_my2KG7RdP4qPt7UipO-5" vertex="1">
          <mxGeometry width="211.63" height="110" as="geometry" />
        </mxCell>
        <mxCell id="mNTBSG7Fdfv_2k1WUgpb-7" value="&lt;font style=&quot;font-size: 14px;&quot;&gt;&lt;b&gt;7&lt;/b&gt;&lt;/font&gt;" style="text;html=1;strokeColor=none;fillColor=none;align=center;verticalAlign=middle;whiteSpace=wrap;rounded=0;" parent="Y_my2KG7RdP4qPt7UipO-5" vertex="1">
          <mxGeometry x="47.450000000000045" y="10" width="60" height="30" as="geometry" />
        </mxCell>
        <mxCell id="Y_my2KG7RdP4qPt7UipO-6" value="" style="group" vertex="1" connectable="0" parent="1">
          <mxGeometry x="717" y="411.25" width="236.74" height="72.5" as="geometry" />
        </mxCell>
        <mxCell id="0LKnxJZpvo0fj-x4wCi4-15" value="&lt;font style=&quot;font-size: 14px;&quot;&gt;for i = 0, i &amp;lt; arrayGiven.Length, i++&lt;/font&gt;" style="shape=hexagon;perimeter=hexagonPerimeter2;whiteSpace=wrap;html=1;fixedSize=1;strokeWidth=2;" parent="Y_my2KG7RdP4qPt7UipO-6" vertex="1">
          <mxGeometry width="236.74" height="72.5" as="geometry" />
        </mxCell>
        <mxCell id="mNTBSG7Fdfv_2k1WUgpb-8" value="&lt;font style=&quot;font-size: 14px;&quot;&gt;&lt;b&gt;6&lt;/b&gt;&lt;/font&gt;" style="text;html=1;strokeColor=none;fillColor=none;align=center;verticalAlign=middle;whiteSpace=wrap;rounded=0;" parent="Y_my2KG7RdP4qPt7UipO-6" vertex="1">
          <mxGeometry width="60" height="30" as="geometry" />
        </mxCell>
        <mxCell id="Y_my2KG7RdP4qPt7UipO-7" style="edgeStyle=orthogonalEdgeStyle;rounded=0;orthogonalLoop=1;jettySize=auto;html=1;entryX=0;entryY=0.5;entryDx=0;entryDy=0;" edge="1" parent="1" source="0LKnxJZpvo0fj-x4wCi4-34" target="0LKnxJZpvo0fj-x4wCi4-15">
          <mxGeometry relative="1" as="geometry">
            <mxPoint x="710" y="440" as="targetPoint" />
            <Array as="points">
              <mxPoint x="835" y="1300" />
              <mxPoint x="480" y="1300" />
              <mxPoint x="480" y="448" />
            </Array>
          </mxGeometry>
        </mxCell>
        <mxCell id="Y_my2KG7RdP4qPt7UipO-8" value="" style="group" vertex="1" connectable="0" parent="1">
          <mxGeometry x="44.69999999999999" y="520" width="317.41" height="85" as="geometry" />
        </mxCell>
        <mxCell id="0LKnxJZpvo0fj-x4wCi4-8" value="&lt;div style=&quot;border-color: var(--border-color); background-color: rgb(255, 255, 255); font-family: Consolas, &amp;quot;Courier New&amp;quot;, monospace; font-size: 14px; line-height: 19px;&quot;&gt;Введите значение элементов массива&lt;/div&gt;&lt;div style=&quot;border-color: var(--border-color); background-color: rgb(255, 255, 255); font-family: Consolas, &amp;quot;Courier New&amp;quot;, monospace; font-size: 14px; line-height: 19px;&quot;&gt;arrayGiven[i]&amp;nbsp;&lt;br&gt;&lt;/div&gt;" style="shape=parallelogram;perimeter=parallelogramPerimeter;whiteSpace=wrap;html=1;fixedSize=1;strokeWidth=2;" parent="Y_my2KG7RdP4qPt7UipO-8" vertex="1">
          <mxGeometry x="4.110000000000014" width="313.3" height="85" as="geometry" />
        </mxCell>
        <mxCell id="mNTBSG7Fdfv_2k1WUgpb-9" value="&lt;font style=&quot;font-size: 14px;&quot;&gt;&lt;b&gt;5&lt;/b&gt;&lt;/font&gt;" style="text;html=1;strokeColor=none;fillColor=none;align=center;verticalAlign=middle;whiteSpace=wrap;rounded=0;" parent="Y_my2KG7RdP4qPt7UipO-8" vertex="1">
          <mxGeometry width="60" height="30" as="geometry" />
        </mxCell>
        <mxCell id="Y_my2KG7RdP4qPt7UipO-9" value="" style="group" vertex="1" connectable="0" parent="1">
          <mxGeometry x="60" y="420" width="298.26" height="55" as="geometry" />
        </mxCell>
        <mxCell id="0LKnxJZpvo0fj-x4wCi4-6" value="&lt;font style=&quot;font-size: 14px;&quot;&gt;for i = 0, i &amp;lt; arrayGiven.Length, i++&lt;/font&gt;" style="shape=hexagon;perimeter=hexagonPerimeter2;whiteSpace=wrap;html=1;fixedSize=1;strokeWidth=2;" parent="Y_my2KG7RdP4qPt7UipO-9" vertex="1">
          <mxGeometry x="8.260000000000005" width="290" height="55" as="geometry" />
        </mxCell>
        <mxCell id="mNTBSG7Fdfv_2k1WUgpb-10" value="&lt;font style=&quot;font-size: 14px;&quot;&gt;&lt;b&gt;4&lt;/b&gt;&lt;/font&gt;" style="text;html=1;strokeColor=none;fillColor=none;align=center;verticalAlign=middle;whiteSpace=wrap;rounded=0;" parent="Y_my2KG7RdP4qPt7UipO-9" vertex="1">
          <mxGeometry width="60" height="30" as="geometry" />
        </mxCell>
        <mxCell id="Y_my2KG7RdP4qPt7UipO-10" value="" style="group" vertex="1" connectable="0" parent="1">
          <mxGeometry x="10" y="300" width="388.86" height="90" as="geometry" />
        </mxCell>
        <mxCell id="0LKnxJZpvo0fj-x4wCi4-3" value="&lt;font style=&quot;font-size: 14px;&quot;&gt;arrayGiven = new string[arrayLength]&lt;br&gt;&amp;nbsp;&amp;nbsp;arrayElementsLengthLessOrEqualToThree = new string[1]&lt;br&gt;j = 0&lt;br&gt;&lt;/font&gt;" style="rounded=0;whiteSpace=wrap;html=1;strokeWidth=2;" parent="Y_my2KG7RdP4qPt7UipO-10" vertex="1">
          <mxGeometry x="17.67" width="371.19" height="90" as="geometry" />
        </mxCell>
        <mxCell id="mNTBSG7Fdfv_2k1WUgpb-11" value="&lt;font style=&quot;font-size: 14px;&quot;&gt;&lt;b&gt;3&lt;/b&gt;&lt;/font&gt;" style="text;html=1;strokeColor=none;fillColor=none;align=center;verticalAlign=middle;whiteSpace=wrap;rounded=0;" parent="Y_my2KG7RdP4qPt7UipO-10" vertex="1">
          <mxGeometry width="60" height="30" as="geometry" />
        </mxCell>
        <mxCell id="Y_my2KG7RdP4qPt7UipO-11" value="" style="group" vertex="1" connectable="0" parent="1">
          <mxGeometry x="104.7" y="180" width="217.11" height="80" as="geometry" />
        </mxCell>
        <mxCell id="0LKnxJZpvo0fj-x4wCi4-2" value="&lt;div style=&quot;border-color: var(--border-color); background-color: rgb(255, 255, 255); font-family: Consolas, &amp;quot;Courier New&amp;quot;, monospace; font-size: 14px; line-height: 19px;&quot;&gt;Введите длину массива&lt;/div&gt;&lt;div style=&quot;border-color: var(--border-color); background-color: rgb(255, 255, 255); font-family: Consolas, &amp;quot;Courier New&amp;quot;, monospace; font-size: 14px; line-height: 19px;&quot;&gt;arrayLength&lt;/div&gt;" style="shape=parallelogram;perimeter=parallelogramPerimeter;whiteSpace=wrap;html=1;fixedSize=1;strokeWidth=2;" parent="Y_my2KG7RdP4qPt7UipO-11" vertex="1">
          <mxGeometry width="217.11" height="80" as="geometry" />
        </mxCell>
        <mxCell id="mNTBSG7Fdfv_2k1WUgpb-4" value="&lt;font style=&quot;font-size: 14px;&quot;&gt;&lt;b&gt;2&lt;/b&gt;&lt;/font&gt;" style="text;html=1;strokeColor=none;fillColor=none;align=center;verticalAlign=middle;whiteSpace=wrap;rounded=0;" parent="Y_my2KG7RdP4qPt7UipO-11" vertex="1">
          <mxGeometry width="60" height="30" as="geometry" />
        </mxCell>
        <mxCell id="Y_my2KG7RdP4qPt7UipO-12" value="" style="group" vertex="1" connectable="0" parent="1">
          <mxGeometry x="130" y="80" width="146.81" height="60" as="geometry" />
        </mxCell>
        <mxCell id="A2ZfnswEodKYnZPHTsR--3" value="&lt;font style=&quot;font-size: 14px;&quot;&gt;Start&lt;/font&gt;" style="strokeWidth=2;html=1;shape=mxgraph.flowchart.terminator;whiteSpace=wrap;" parent="Y_my2KG7RdP4qPt7UipO-12" vertex="1">
          <mxGeometry x="19.69999999999999" width="127.11" height="60" as="geometry" />
        </mxCell>
        <mxCell id="mNTBSG7Fdfv_2k1WUgpb-3" value="&lt;font style=&quot;font-size: 14px;&quot;&gt;&lt;b&gt;1&lt;/b&gt;&lt;/font&gt;" style="text;html=1;strokeColor=none;fillColor=none;align=center;verticalAlign=middle;whiteSpace=wrap;rounded=0;" parent="Y_my2KG7RdP4qPt7UipO-12" vertex="1">
          <mxGeometry y="10" width="60" height="30" as="geometry" />
        </mxCell>
        <mxCell id="Y_my2KG7RdP4qPt7UipO-13" value="" style="group" vertex="1" connectable="0" parent="1">
          <mxGeometry x="1180" y="1100" width="330" height="130" as="geometry" />
        </mxCell>
        <mxCell id="0LKnxJZpvo0fj-x4wCi4-45" value="&lt;font style=&quot;font-size: 14px;&quot;&gt;Вывод&amp;nbsp;&amp;nbsp;&lt;br&gt;arrayElementsLengthLessOrEqualToThree&lt;/font&gt;" style="strokeWidth=2;html=1;shape=mxgraph.flowchart.document2;whiteSpace=wrap;size=0.25;" parent="Y_my2KG7RdP4qPt7UipO-13" vertex="1">
          <mxGeometry width="330" height="130" as="geometry" />
        </mxCell>
        <mxCell id="mNTBSG7Fdfv_2k1WUgpb-13" value="&lt;b style=&quot;border-color: var(--border-color); color: rgb(0, 0, 0); font-family: Helvetica; font-size: 14px; font-style: normal; font-variant-ligatures: normal; font-variant-caps: normal; letter-spacing: normal; orphans: 2; text-align: center; text-indent: 0px; text-transform: none; widows: 2; word-spacing: 0px; -webkit-text-stroke-width: 0px; background-color: rgb(251, 251, 251); text-decoration-thickness: initial; text-decoration-style: initial; text-decoration-color: initial;&quot;&gt;11&lt;/b&gt;" style="text;whiteSpace=wrap;html=1;" parent="Y_my2KG7RdP4qPt7UipO-13" vertex="1">
          <mxGeometry width="50" height="40" as="geometry" />
        </mxCell>
        <mxCell id="Y_my2KG7RdP4qPt7UipO-14" value="" style="group" vertex="1" connectable="0" parent="1">
          <mxGeometry x="1272.5" y="1320" width="145" height="60" as="geometry" />
        </mxCell>
        <mxCell id="0LKnxJZpvo0fj-x4wCi4-47" value="&lt;font style=&quot;font-size: 14px;&quot;&gt;End&lt;/font&gt;" style="strokeWidth=2;html=1;shape=mxgraph.flowchart.terminator;whiteSpace=wrap;" parent="Y_my2KG7RdP4qPt7UipO-14" vertex="1">
          <mxGeometry width="145" height="60" as="geometry" />
        </mxCell>
        <mxCell id="mNTBSG7Fdfv_2k1WUgpb-14" value="&lt;b style=&quot;border-color: var(--border-color); color: rgb(0, 0, 0); font-family: Helvetica; font-size: 14px; font-style: normal; font-variant-ligatures: normal; font-variant-caps: normal; letter-spacing: normal; orphans: 2; text-align: center; text-indent: 0px; text-transform: none; widows: 2; word-spacing: 0px; -webkit-text-stroke-width: 0px; background-color: rgb(251, 251, 251); text-decoration-thickness: initial; text-decoration-style: initial; text-decoration-color: initial;&quot;&gt;12&lt;/b&gt;" style="text;whiteSpace=wrap;html=1;" parent="Y_my2KG7RdP4qPt7UipO-14" vertex="1">
          <mxGeometry x="17.5" width="50" height="40" as="geometry" />
        </mxCell>
        <mxCell id="Y_my2KG7RdP4qPt7UipO-16" value="" style="endArrow=none;html=1;rounded=0;exitX=1;exitY=0.5;exitDx=0;exitDy=0;" edge="1" parent="1" source="0LKnxJZpvo0fj-x4wCi4-18">
          <mxGeometry width="50" height="50" relative="1" as="geometry">
            <mxPoint x="1070" y="540" as="sourcePoint" />
            <mxPoint x="835" y="1300" as="targetPoint" />
            <Array as="points">
              <mxPoint x="1160" y="585" />
              <mxPoint x="1160" y="1300" />
            </Array>
          </mxGeometry>
        </mxCell>
      </root>
    </mxGraphModel>
  </diagram>
</mxfile>
